<svg width="66" height="66" viewBox="0 0 66 66" fill="none" xmlns="http://www.w3.org/2000/svg">
<g id="icon/content/remove_circle_outline_24px">
<path id="icon/content/remove_circle_outline_24px_2" fill-rule="evenodd" clip-rule="evenodd" d="M33 5.5C17.82 5.5 5.5 17.82 5.5 33C5.5 48.18 17.82 60.5 33 60.5C48.18 60.5 60.5 48.18 60.5 33C60.5 17.82 48.18 5.5 33 5.5ZM11 33C11 45.1275 20.8725 55 33 55C45.1275 55 55 45.1275 55 33C55 20.8725 45.1275 11 33 11C20.8725 11 11 20.8725 11 33ZM19.25 30.25V35.75H46.75V30.25H19.25Z" fill="#FF0000" fill-opacity="0.54"/>
</g>
</svg>
