<svg width="300" height="300" viewBox="0 0 300 300" fill="none" xmlns="http://www.w3.org/2000/svg">
<path d="M5.03117 48H0V5.81557C0.254743 1.96311 3.05691 1 5.03117 1H47V5.81557H5.03117V48Z" fill="white"/>
<path d="M294.969 253H300V295.184C299.745 299.037 296.943 300 294.969 300H253V295.184H294.969V253Z" fill="white"/>
<path d="M47 294.969V300H4.81557C0.963115 299.745 0 296.943 0 294.969L0 253H4.81557L4.81557 294.969H47Z" fill="white"/>
<path d="M253 6.03117V1L295.184 1C299.037 1.25474 300 4.05691 300 6.03117V48H295.184V6.03117L253 6.03117Z" fill="white"/>
</svg>
