<svg width="52" height="52" viewBox="0 0 52 52" fill="none" xmlns="http://www.w3.org/2000/svg">
<g id="icon/hardware/keyboard_24px">
<path id="icon/hardware/keyboard_24px_2" fill-rule="evenodd" clip-rule="evenodd" d="M43.3333 10.8335H8.66659C6.28325 10.8335 4.35492 12.7835 4.35492 15.1668L4.33325 36.8335C4.33325 39.2168 6.28325 41.1668 8.66659 41.1668H43.3333C45.7166 41.1668 47.6666 39.2168 47.6666 36.8335V15.1668C47.6666 12.7835 45.7166 10.8335 43.3333 10.8335ZM43.3332 15.1668V36.8335H8.66659V15.1668H43.3332ZM28.1666 17.3335H23.8333V21.6668H28.1666V17.3335ZM23.8333 23.8335H28.1666V28.1668H23.8333V23.8335ZM21.6666 17.3335H17.3333V21.6668H21.6666V17.3335ZM17.3333 23.8335H21.6666V28.1668H17.3333V23.8335ZM15.1666 23.8335H10.8333V28.1668H15.1666V23.8335ZM10.8333 17.3335H15.1666V21.6668H10.8333V17.3335ZM34.6666 30.3335H17.3333V34.6668H34.6666V30.3335ZM30.3333 23.8335H34.6666V28.1668H30.3333V23.8335ZM34.6666 17.3335H30.3333V21.6668H34.6666V17.3335ZM36.8333 23.8335H41.1666V28.1668H36.8333V23.8335ZM41.1666 17.3335H36.8333V21.6668H41.1666V17.3335Z" fill="#7C7C7C"/>
</g>
</svg>
