<svg width="804" height="211" viewBox="0 0 804 211" fill="none" xmlns="http://www.w3.org/2000/svg">
<g clip-path="url(#clip0)">
<rect width="804" height="211" fill="white"/>
<path d="M297.656 85.3778H308.239C307.919 73.7301 297.621 65.2784 282.848 65.2784C268.253 65.2784 257.067 73.6236 257.067 86.1591C257.067 96.2798 264.311 102.21 275.994 105.371L284.588 107.714C292.365 109.774 298.366 112.331 298.366 118.794C298.366 125.896 291.584 130.584 282.244 130.584C273.793 130.584 266.761 126.82 266.122 118.901H255.114C255.824 132.075 266.016 140.207 282.315 140.207C299.396 140.207 309.233 131.223 309.233 118.901C309.233 105.797 297.55 100.719 288.317 98.446L281.214 96.5994C275.533 95.1435 267.969 92.4801 268.004 85.5199C268.004 79.3409 273.651 74.7599 282.599 74.7599C290.945 74.7599 296.875 78.6662 297.656 85.3778ZM345.002 140.101C356.898 140.101 365.314 134.241 367.729 125.364L357.679 123.553C355.762 128.702 351.145 131.33 345.108 131.33C336.017 131.33 329.909 125.435 329.625 114.923H368.404V111.159C368.404 91.4503 356.614 83.7443 344.256 83.7443C329.057 83.7443 319.043 95.321 319.043 112.082C319.043 129.021 328.915 140.101 345.002 140.101ZM329.661 106.969C330.087 99.2273 335.698 92.5156 344.327 92.5156C352.566 92.5156 357.963 98.6236 357.999 106.969H329.661ZM403.161 140.101C416.051 140.101 424.396 132.359 425.568 121.741H415.234C413.885 127.636 409.304 131.116 403.232 131.116C394.247 131.116 388.459 123.624 388.459 111.727C388.459 100.044 394.354 92.6932 403.232 92.6932C409.979 92.6932 414.098 96.9545 415.234 102.068H425.568C424.432 91.0597 415.447 83.7443 403.054 83.7443C387.678 83.7443 377.734 95.321 377.734 111.976C377.734 128.418 387.322 140.101 403.161 140.101ZM471.475 116.379C471.511 125.648 464.622 130.051 458.656 130.051C452.086 130.051 447.541 125.293 447.541 117.871V84.4545H436.923V119.149C436.923 132.679 444.345 139.71 454.821 139.71C463.024 139.71 468.599 135.378 471.12 129.554H471.689V139H482.129V84.4545H471.475V116.379ZM496.396 139H507.013V105.69C507.013 98.5526 512.518 93.4034 520.046 93.4034C522.248 93.4034 524.734 93.794 525.586 94.0426V83.8864C524.521 83.7443 522.425 83.6378 521.076 83.6378C514.684 83.6378 509.215 87.2599 507.227 93.1193H506.658V84.4545H496.396V139ZM556.33 140.101C568.226 140.101 576.642 134.241 579.057 125.364L569.007 123.553C567.09 128.702 562.473 131.33 556.436 131.33C547.346 131.33 541.238 125.435 540.953 114.923H579.732V111.159C579.732 91.4503 567.942 83.7443 555.584 83.7443C540.385 83.7443 530.371 95.321 530.371 112.082C530.371 129.021 540.243 140.101 556.33 140.101ZM540.989 106.969C541.415 99.2273 547.026 92.5156 555.655 92.5156C563.894 92.5156 569.292 98.6236 569.327 106.969H540.989ZM632.031 85.3778H642.614C642.294 73.7301 631.996 65.2784 617.223 65.2784C602.628 65.2784 591.442 73.6236 591.442 86.1591C591.442 96.2798 598.686 102.21 610.369 105.371L618.963 107.714C626.74 109.774 632.741 112.331 632.741 118.794C632.741 125.896 625.959 130.584 616.619 130.584C608.168 130.584 601.136 126.82 600.497 118.901H589.489C590.199 132.075 600.391 140.207 616.69 140.207C633.771 140.207 643.608 131.223 643.608 118.901C643.608 105.797 631.925 100.719 622.692 98.446L615.589 96.5994C609.908 95.1435 602.344 92.4801 602.379 85.5199C602.379 79.3409 608.026 74.7599 616.974 74.7599C625.32 74.7599 631.25 78.6662 632.031 85.3778ZM655.868 139H666.486V84.4545H655.868V139ZM661.23 76.0384C664.888 76.0384 667.942 73.1974 667.942 69.7173C667.942 66.2372 664.888 63.3608 661.23 63.3608C657.537 63.3608 654.519 66.2372 654.519 69.7173C654.519 73.1974 657.537 76.0384 661.23 76.0384ZM703.64 160.591C717.525 160.591 728.249 154.234 728.249 140.207V84.4545H717.844V93.2969H717.063C715.181 89.9233 711.417 83.7443 701.261 83.7443C688.086 83.7443 678.391 94.1491 678.391 111.514C678.391 128.915 688.299 138.183 701.19 138.183C711.204 138.183 715.075 132.537 716.992 129.057H717.667V139.781C717.667 148.339 711.808 152.033 703.746 152.033C694.904 152.033 691.46 147.594 689.577 144.469L680.451 148.233C683.327 154.909 690.607 160.591 703.64 160.591ZM703.533 129.376C694.052 129.376 689.116 122.097 689.116 111.372C689.116 100.896 693.945 92.7642 703.533 92.7642C712.802 92.7642 717.773 100.328 717.773 111.372C717.773 122.629 712.695 129.376 703.533 129.376ZM753.107 106.614C753.107 97.9134 758.434 92.9418 765.82 92.9418C773.029 92.9418 777.397 97.6648 777.397 105.584V139H788.015V104.305C788.015 90.8111 780.593 83.7443 769.442 83.7443C761.239 83.7443 755.877 87.544 753.356 93.3324H752.681V84.4545H742.489V139H753.107V106.614Z" fill="black"/>
<g clip-path="url(#clip1)">
<path d="M166.128 30.5933L91.6001 8.2349C90.5577 7.9217 89.4448 7.9217 88.4013 8.2349L13.873 30.5933C11.5184 31.2995 9.90601 33.4667 9.90601 35.9248V117.905C9.90601 128.568 14.2226 139.484 22.7358 150.348C29.2381 158.646 38.2335 166.978 49.4724 175.114C68.3525 188.78 86.9436 197.164 87.7259 197.514C88.4495 197.838 89.2247 198 90.0003 198C90.7755 198 91.5511 197.838 92.2747 197.514C93.057 197.164 111.648 188.78 130.528 175.114C141.766 166.978 150.762 158.646 157.264 150.348C165.777 139.484 170.094 128.569 170.094 117.905V35.9248C170.094 33.4667 168.482 31.2995 166.128 30.5933ZM158.961 117.905C158.961 136.776 140.027 154.471 124.143 165.992C109.903 176.321 95.461 183.65 90.0007 186.283C84.5404 183.65 70.0982 176.321 55.8578 165.992C39.9735 154.471 21.0388 136.776 21.0388 117.905V40.0662L90.0003 19.3777L158.961 40.0662V117.905V117.905Z" fill="black"/>
<path d="M166.128 30.5933L91.6001 8.2349C90.5577 7.9217 89.4448 7.9217 88.4013 8.2349L13.873 30.5933C11.5184 31.2995 9.90601 33.4667 9.90601 35.9248V117.905C9.90601 128.568 14.2226 139.484 22.7358 150.348C29.2381 158.646 38.2335 166.978 49.4724 175.114C68.3525 188.78 86.9436 197.164 87.7259 197.514C88.4495 197.838 89.2247 198 90.0003 198C90.7755 198 91.5511 197.838 92.2747 197.514C93.057 197.164 111.648 188.78 130.528 175.114C141.766 166.978 150.762 158.646 157.264 150.348C165.777 139.484 170.094 128.569 170.094 117.905V35.9248C170.094 33.4667 168.482 31.2995 166.128 30.5933ZM158.961 117.905C158.961 136.776 140.027 154.471 124.143 165.992C109.903 176.321 95.461 183.65 90.0007 186.283C84.5404 183.65 70.0982 176.321 55.8578 165.992C39.9735 154.471 21.0388 136.776 21.0388 117.905V40.0662L90.0003 19.3777L158.961 40.0662V117.905V117.905Z" fill="url(#paint0_linear)"/>
</g>
<g clip-path="url(#clip2)">
<path d="M75.3955 114.728C75.6427 111.752 76.6087 108.88 78.2093 106.358L111.94 53.3452C112.437 52.5663 113.47 52.3365 114.249 52.832L114.545 53.0205L117.201 48.7872C117.914 47.6502 119.053 46.8456 120.364 46.5542C121.674 46.2629 123.047 46.5093 124.175 47.2371L126.639 48.8285C128.949 50.3294 129.623 53.4091 128.15 55.7377L125.469 59.9503L127.016 60.9224C128.901 62.107 130.236 63.9941 130.725 66.1657C131.214 68.3372 130.817 70.614 129.623 72.4926L119.46 88.464C118.964 89.2436 117.93 89.4734 117.15 88.9774C116.372 88.4819 116.142 87.448 116.638 86.6685L126.8 70.6965C128.254 68.4115 127.632 65.3842 125.394 63.859L110.192 87.7505L107.416 92.1143L105.619 94.9365L92.5473 115.481C90.942 117.999 88.7491 120.09 86.1579 121.576L77.0327 126.793C76.494 127.101 75.8287 127.086 75.3048 126.753C74.781 126.419 74.4851 125.823 74.5356 125.204L75.3955 114.728ZM124.824 51.6387L122.36 50.0472C121.984 49.8041 121.527 49.7225 121.09 49.8196C120.653 49.9168 120.273 50.1846 120.035 50.5641L117.368 54.8159L122.636 58.1692L125.328 53.9415C125.818 53.1658 125.594 52.1387 124.824 51.6387ZM122.558 62.084L113.865 56.5524L100.389 77.7319L109.082 83.2634L122.558 62.084ZM107.286 86.0855L98.5931 80.5538L95.8993 84.7875L104.593 90.319L107.286 86.0855ZM102.797 93.1411L94.1031 87.6096L81.0319 108.154C80.9001 108.362 80.7738 108.573 80.6527 108.787L89.3119 114.297C89.454 114.096 89.5927 113.892 89.7241 113.685L102.797 93.1411ZM84.497 118.672C85.4119 118.148 86.269 117.529 87.055 116.826L79.318 111.903C79.0137 112.912 78.8163 113.952 78.7293 115.002L78.1288 122.313L84.497 118.672Z" fill="black"/>
</g>
<g filter="url(#filter0_d)">
<path d="M76.1486 127.377C76.1487 125.377 53.2694 122.216 46.5067 129.878C42.0246 138.536 67.692 137.255 107 136.379C124.582 135.082 124.557 141.178 107 149.382C79.2073 161.565 155.069 156.298 205 152.883" stroke="#333333" stroke-width="4"/>
</g>
</g>
<defs>
<filter id="filter0_d" x="39.9991" y="123" width="169.137" height="44" filterUnits="userSpaceOnUse" color-interpolation-filters="sRGB">
<feFlood flood-opacity="0" result="BackgroundImageFix"/>
<feColorMatrix in="SourceAlpha" type="matrix" values="0 0 0 0 0 0 0 0 0 0 0 0 0 0 0 0 0 0 127 0"/>
<feOffset dy="4"/>
<feGaussianBlur stdDeviation="2"/>
<feColorMatrix type="matrix" values="0 0 0 0 1 0 0 0 0 1 0 0 0 0 1 0 0 0 0.25 0"/>
<feBlend mode="normal" in2="BackgroundImageFix" result="effect1_dropShadow"/>
<feBlend mode="normal" in="SourceGraphic" in2="effect1_dropShadow" result="shape"/>
</filter>
<linearGradient id="paint0_linear" x1="89.9999" y1="8" x2="89.9999" y2="198" gradientUnits="userSpaceOnUse">
<stop/>
<stop offset="1" stop-color="white" stop-opacity="0"/>
</linearGradient>
<clipPath id="clip0">
<rect width="804" height="211" fill="white"/>
</clipPath>
<clipPath id="clip1">
<rect width="190" height="190" fill="white" transform="translate(-5 8)"/>
</clipPath>
<clipPath id="clip2">
<rect width="69" height="69" fill="white" transform="matrix(-0.976174 0.216988 0.216988 0.976174 127.356 45)"/>
</clipPath>
</defs>
</svg>
