<svg width="853" height="261" viewBox="0 0 853 261" fill="none" xmlns="http://www.w3.org/2000/svg">
<rect width="853" height="261" fill="black"/>
<path d="M324.656 113.378H335.239C334.919 101.73 324.621 93.2784 309.848 93.2784C295.253 93.2784 284.067 101.624 284.067 114.159C284.067 124.28 291.311 130.21 302.994 133.371L311.588 135.714C319.365 137.774 325.366 140.331 325.366 146.794C325.366 153.896 318.584 158.584 309.244 158.584C300.793 158.584 293.761 154.82 293.122 146.901H282.114C282.824 160.075 293.016 168.207 309.315 168.207C326.396 168.207 336.233 159.223 336.233 146.901C336.233 133.797 324.55 128.719 315.317 126.446L308.214 124.599C302.533 123.143 294.969 120.48 295.004 113.52C295.004 107.341 300.651 102.76 309.599 102.76C317.945 102.76 323.875 106.666 324.656 113.378ZM372.002 168.101C383.898 168.101 392.314 162.241 394.729 153.364L384.679 151.553C382.762 156.702 378.145 159.33 372.108 159.33C363.017 159.33 356.909 153.435 356.625 142.923H395.404V139.159C395.404 119.45 383.614 111.744 371.256 111.744C356.057 111.744 346.043 123.321 346.043 140.082C346.043 157.021 355.915 168.101 372.002 168.101ZM356.661 134.969C357.087 127.227 362.698 120.516 371.327 120.516C379.566 120.516 384.963 126.624 384.999 134.969H356.661ZM430.161 168.101C443.051 168.101 451.396 160.359 452.568 149.741H442.234C440.885 155.636 436.304 159.116 430.232 159.116C421.247 159.116 415.459 151.624 415.459 139.727C415.459 128.044 421.354 120.693 430.232 120.693C436.979 120.693 441.098 124.955 442.234 130.068H452.568C451.432 119.06 442.447 111.744 430.054 111.744C414.678 111.744 404.734 123.321 404.734 139.976C404.734 156.418 414.322 168.101 430.161 168.101ZM498.475 144.379C498.511 153.648 491.622 158.051 485.656 158.051C479.086 158.051 474.541 153.293 474.541 145.871V112.455H463.923V147.149C463.923 160.679 471.345 167.71 481.821 167.71C490.024 167.71 495.599 163.378 498.12 157.554H498.689V167H509.129V112.455H498.475V144.379ZM523.396 167H534.013V133.69C534.013 126.553 539.518 121.403 547.046 121.403C549.248 121.403 551.734 121.794 552.586 122.043V111.886C551.521 111.744 549.425 111.638 548.076 111.638C541.684 111.638 536.215 115.26 534.227 121.119H533.658V112.455H523.396V167ZM583.33 168.101C595.226 168.101 603.642 162.241 606.057 153.364L596.007 151.553C594.09 156.702 589.473 159.33 583.436 159.33C574.346 159.33 568.238 153.435 567.953 142.923H606.732V139.159C606.732 119.45 594.942 111.744 582.584 111.744C567.385 111.744 557.371 123.321 557.371 140.082C557.371 157.021 567.243 168.101 583.33 168.101ZM567.989 134.969C568.415 127.227 574.026 120.516 582.655 120.516C590.894 120.516 596.292 126.624 596.327 134.969H567.989ZM659.031 113.378H669.614C669.294 101.73 658.996 93.2784 644.223 93.2784C629.628 93.2784 618.442 101.624 618.442 114.159C618.442 124.28 625.686 130.21 637.369 133.371L645.963 135.714C653.74 137.774 659.741 140.331 659.741 146.794C659.741 153.896 652.959 158.584 643.619 158.584C635.168 158.584 628.136 154.82 627.497 146.901H616.489C617.199 160.075 627.391 168.207 643.69 168.207C660.771 168.207 670.608 159.223 670.608 146.901C670.608 133.797 658.925 128.719 649.692 126.446L642.589 124.599C636.908 123.143 629.344 120.48 629.379 113.52C629.379 107.341 635.026 102.76 643.974 102.76C652.32 102.76 658.25 106.666 659.031 113.378ZM682.868 167H693.486V112.455H682.868V167ZM688.23 104.038C691.888 104.038 694.942 101.197 694.942 97.7173C694.942 94.2372 691.888 91.3608 688.23 91.3608C684.537 91.3608 681.519 94.2372 681.519 97.7173C681.519 101.197 684.537 104.038 688.23 104.038ZM730.64 188.591C744.525 188.591 755.249 182.234 755.249 168.207V112.455H744.844V121.297H744.063C742.181 117.923 738.417 111.744 728.261 111.744C715.086 111.744 705.391 122.149 705.391 139.514C705.391 156.915 715.299 166.183 728.19 166.183C738.204 166.183 742.075 160.537 743.992 157.057H744.667V167.781C744.667 176.339 738.808 180.033 730.746 180.033C721.904 180.033 718.46 175.594 716.577 172.469L707.451 176.233C710.327 182.909 717.607 188.591 730.64 188.591ZM730.533 157.376C721.052 157.376 716.116 150.097 716.116 139.372C716.116 128.896 720.945 120.764 730.533 120.764C739.802 120.764 744.773 128.328 744.773 139.372C744.773 150.629 739.695 157.376 730.533 157.376ZM780.107 134.614C780.107 125.913 785.434 120.942 792.82 120.942C800.029 120.942 804.397 125.665 804.397 133.584V167H815.015V132.305C815.015 118.811 807.593 111.744 796.442 111.744C788.239 111.744 782.877 115.544 780.356 121.332H779.681V112.455H769.489V167H780.107V134.614Z" fill="white"/>
<g clip-path="url(#clip0)">
<path d="M193.128 58.5933L118.6 36.2349C117.558 35.9217 116.445 35.9217 115.401 36.2349L40.873 58.5933C38.5184 59.2995 36.906 61.4667 36.906 63.9248V145.905C36.906 156.568 41.2226 167.484 49.7358 178.348C56.2381 186.646 65.2335 194.978 76.4724 203.114C95.3525 216.78 113.944 225.164 114.726 225.514C115.449 225.838 116.225 226 117 226C117.776 226 118.551 225.838 119.275 225.514C120.057 225.164 138.648 216.78 157.528 203.114C168.766 194.978 177.762 186.646 184.264 178.348C192.777 167.484 197.094 156.569 197.094 145.905V63.9248C197.094 61.4667 195.482 59.2995 193.128 58.5933ZM185.961 145.905C185.961 164.776 167.027 182.471 151.143 193.992C136.903 204.321 122.461 211.65 117.001 214.283C111.54 211.65 97.0982 204.321 82.8578 193.992C66.9735 182.471 48.0388 164.776 48.0388 145.905V68.0662L117 47.3777L185.961 68.0662V145.905V145.905Z" fill="white"/>
<path d="M193.128 58.5933L118.6 36.2349C117.558 35.9217 116.445 35.9217 115.401 36.2349L40.873 58.5933C38.5184 59.2995 36.906 61.4667 36.906 63.9248V145.905C36.906 156.568 41.2226 167.484 49.7358 178.348C56.2381 186.646 65.2335 194.978 76.4724 203.114C95.3525 216.78 113.944 225.164 114.726 225.514C115.449 225.838 116.225 226 117 226C117.776 226 118.551 225.838 119.275 225.514C120.057 225.164 138.648 216.78 157.528 203.114C168.766 194.978 177.762 186.646 184.264 178.348C192.777 167.484 197.094 156.569 197.094 145.905V63.9248C197.094 61.4667 195.482 59.2995 193.128 58.5933ZM185.961 145.905C185.961 164.776 167.027 182.471 151.143 193.992C136.903 204.321 122.461 211.65 117.001 214.283C111.54 211.65 97.0982 204.321 82.8578 193.992C66.9735 182.471 48.0388 164.776 48.0388 145.905V68.0662L117 47.3777L185.961 68.0662V145.905V145.905Z" fill="url(#paint0_linear)"/>
</g>
<g clip-path="url(#clip1)">
<path d="M102.395 142.728C102.643 139.752 103.609 136.88 105.209 134.358L138.94 81.3452C139.437 80.5663 140.47 80.3365 141.249 80.832L141.545 81.0205L144.201 76.7872C144.914 75.6502 146.053 74.8456 147.364 74.5542C148.674 74.2629 150.047 74.5093 151.175 75.2371L153.639 76.8285C155.949 78.3294 156.623 81.4091 155.15 83.7377L152.469 87.9503L154.016 88.9224C155.901 90.107 157.236 91.9941 157.725 94.1657C158.214 96.3372 157.817 98.614 156.623 100.493L146.46 116.464C145.964 117.244 144.93 117.473 144.15 116.977C143.371 116.482 143.142 115.448 143.638 114.668L153.8 98.6965C155.254 96.4115 154.631 93.3842 152.394 91.859L137.192 115.751L134.416 120.114L132.619 122.937L119.547 143.481C117.942 145.999 115.749 148.09 113.158 149.576L104.033 154.793C103.494 155.101 102.829 155.086 102.305 154.753C101.781 154.419 101.485 153.823 101.536 153.204L102.395 142.728ZM151.824 79.6387L149.36 78.0472C148.984 77.8041 148.527 77.7225 148.09 77.8196C147.653 77.9168 147.273 78.1846 147.035 78.5641L144.368 82.8159L149.636 86.1692L152.328 81.9415C152.818 81.1658 152.594 80.1387 151.824 79.6387ZM149.558 90.084L140.865 84.5524L127.389 105.732L136.082 111.263L149.558 90.084ZM134.286 114.085L125.593 108.554L122.899 112.788L131.593 118.319L134.286 114.085ZM129.797 121.141L121.103 115.61L108.032 136.154C107.9 136.362 107.774 136.573 107.653 136.787L116.312 142.297C116.454 142.096 116.593 141.892 116.724 141.685L129.797 121.141ZM111.497 146.672C112.412 146.148 113.269 145.529 114.055 144.826L106.318 139.903C106.014 140.912 105.816 141.952 105.729 143.002L105.129 150.313L111.497 146.672Z" fill="white"/>
</g>
<g filter="url(#filter0_d)">
<path d="M103.149 155.377C103.149 153.377 80.2694 150.216 73.5067 157.878C69.0246 166.536 94.692 165.255 134 164.379C151.582 163.082 151.557 169.178 134 177.382C106.207 189.565 182.069 184.298 232 180.883" stroke="#E3E3E3" stroke-width="4"/>
</g>
<defs>
<filter id="filter0_d" x="66.999" y="151" width="169.137" height="44" filterUnits="userSpaceOnUse" color-interpolation-filters="sRGB">
<feFlood flood-opacity="0" result="BackgroundImageFix"/>
<feColorMatrix in="SourceAlpha" type="matrix" values="0 0 0 0 0 0 0 0 0 0 0 0 0 0 0 0 0 0 127 0"/>
<feOffset dy="4"/>
<feGaussianBlur stdDeviation="2"/>
<feColorMatrix type="matrix" values="0 0 0 0 1 0 0 0 0 1 0 0 0 0 1 0 0 0 0.25 0"/>
<feBlend mode="normal" in2="BackgroundImageFix" result="effect1_dropShadow"/>
<feBlend mode="normal" in="SourceGraphic" in2="effect1_dropShadow" result="shape"/>
</filter>
<linearGradient id="paint0_linear" x1="117" y1="36" x2="117" y2="226" gradientUnits="userSpaceOnUse">
<stop stop-color="white"/>
<stop offset="1" stop-color="white" stop-opacity="0"/>
</linearGradient>
<clipPath id="clip0">
<rect width="190" height="190" fill="white" transform="translate(22 36)"/>
</clipPath>
<clipPath id="clip1">
<rect width="69" height="69" fill="white" transform="matrix(-0.976174 0.216988 0.216988 0.976174 154.356 73)"/>
</clipPath>
</defs>
</svg>
