<svg width="52" height="52" viewBox="0 0 52 52" fill="none" xmlns="http://www.w3.org/2000/svg">
<g id="icon/image/center_focus_weak_24px">
<path id="icon/image/center_focus_weak_24px_2" fill-rule="evenodd" clip-rule="evenodd" d="M19.5 10.8333H10.8333V19.5H6.5V10.8333C6.5 8.45 8.45 6.5 10.8333 6.5H19.5V10.8333ZM6.5 32.5H10.8333V41.1667H19.5V45.5H10.8333C8.45 45.5 6.5 43.55 6.5 41.1667V32.5ZM26 17.3333C21.2117 17.3333 17.3333 21.2117 17.3333 26C17.3333 30.7883 21.2117 34.6667 26 34.6667C30.7883 34.6667 34.6667 30.7883 34.6667 26C34.6667 21.2117 30.7883 17.3333 26 17.3333ZM21.6667 26C21.6667 28.3833 23.6167 30.3333 26 30.3333C28.3833 30.3333 30.3333 28.3833 30.3333 26C30.3333 23.6167 28.3833 21.6667 26 21.6667C23.6167 21.6667 21.6667 23.6167 21.6667 26ZM41.1667 6.5H32.5V10.8333H41.1667V19.5H45.5V10.8333C45.5 8.45 43.55 6.5 41.1667 6.5ZM32.5 41.1667H41.1667V32.5H45.5V41.1667C45.5 43.55 43.55 45.5 41.1667 45.5H32.5V41.1667Z" fill="#7C7C7C"/>
</g>
</svg>
