<svg width="60" height="60" viewBox="0 0 60 60" fill="none" xmlns="http://www.w3.org/2000/svg">
<g id="icon/image/center_focus_weak_24px">
<path id="icon/image/center_focus_weak_24px_2" fill-rule="evenodd" clip-rule="evenodd" d="M20 6.66666H6.66666V20H0V6.66666C0 3 3 0 6.66666 0H20V6.66666ZM0 40H6.66666V53.3333H20V59.9999H6.66666C3 59.9999 0 57 0 53.3333V40ZM30 16.6667C22.6334 16.6667 16.6667 22.6333 16.6667 30C16.6667 37.3666 22.6334 43.3333 30 43.3333C37.3667 43.3333 43.3333 37.3666 43.3333 30C43.3333 22.6333 37.3667 16.6667 30 16.6667ZM23.3332 30C23.3332 33.6666 26.3332 36.6666 29.9998 36.6666C33.6665 36.6666 36.6665 33.6666 36.6665 30C36.6665 26.3333 33.6665 23.3333 29.9998 23.3333C26.3332 23.3333 23.3332 26.3333 23.3332 30ZM53.3332 0H39.9999V6.66666H53.3332V20H59.9999V6.66666C59.9999 3 56.9999 0 53.3332 0ZM39.9999 53.3333H53.3332V40H59.9999V53.3333C59.9999 57 56.9999 59.9999 53.3332 59.9999H39.9999V53.3333Z" fill="black"/>
</g>
</svg>
