<svg width="95" height="95" viewBox="0 0 95 95" fill="none" xmlns="http://www.w3.org/2000/svg">
<path d="M90.5193 38.6673L88.6193 37.3673C86.5193 35.9673 85.6193 33.2673 86.3193 30.8673L86.9193 28.6673C87.9193 25.2673 85.6193 21.7673 82.1193 21.1673L79.8193 20.7673C77.3193 20.3673 75.3193 18.4673 74.9193 15.9673L74.5193 13.6673C73.9193 10.1673 70.4193 7.96732 67.0193 8.96732L64.8193 9.66732C62.4193 10.3673 59.7193 9.46732 58.3193 7.46732L56.9193 5.46732C54.8193 2.56732 50.7193 2.16733 48.1193 4.56733L46.4193 6.16733C44.5193 7.86733 41.8193 8.26732 39.5193 6.96732L37.5193 5.86733C34.4193 4.16733 30.5193 5.56733 29.1193 8.86733L28.2193 11.0673C27.3193 13.4673 24.9193 14.9673 22.4193 14.7673L20.1193 14.6673C16.5193 14.4673 13.6193 17.4673 13.9193 20.9673L14.1193 23.2673C14.3193 25.7673 12.8193 28.1673 10.5193 29.1673L8.41928 30.0673C5.11928 31.4673 3.81928 35.3673 5.51928 38.4673L6.71928 40.4673C8.01928 42.6673 7.71928 45.4673 6.01928 47.3673L4.51928 49.0673C2.11928 51.7673 2.61928 55.8673 5.61928 57.8673L7.51928 59.1673C9.61928 60.5673 10.5193 63.2673 9.81928 65.6673L8.91928 67.9673C7.91928 71.3673 10.2193 74.8673 13.7193 75.4673L16.0193 75.8673C18.5193 76.2673 20.5193 78.1673 20.9193 80.6673L21.3193 82.9673C21.9193 86.4673 25.4193 88.6673 28.8193 87.6673L31.0193 86.9673C33.4193 86.2673 36.1193 87.1673 37.5193 89.1673L38.9193 91.0673C41.0193 93.9673 45.1193 94.3673 47.7193 91.9673L49.4193 90.3673C51.3193 88.6673 54.0193 88.2673 56.3193 89.5673L58.3193 90.6673C61.4193 92.3673 65.3193 90.9673 66.7193 87.6673L67.6193 85.4673C68.5193 83.0673 70.9193 81.5673 73.4193 81.7673L75.7193 81.8673C79.3193 82.0673 82.2193 79.0673 81.9193 75.5673L81.8193 73.2673C81.6193 70.7673 83.1193 68.3673 85.4193 67.3673L87.5193 66.4673C90.8193 65.0673 92.1193 61.1673 90.4193 58.0673L89.2193 56.0673C87.9193 53.8673 88.2193 51.0673 89.9193 49.1673L91.4193 47.4673C93.9193 44.8673 93.4193 40.6673 90.5193 38.6673ZM50.6193 57.5673L42.4193 65.6673L34.3193 57.4673L26.5193 49.5673L34.7193 41.4673L42.5193 49.3673L61.2193 30.7673L69.3193 38.9673L50.6193 57.5673Z" fill="#0094FF"/>
</svg>
